# File created by Blade
# Date/Time:  Thu Jan 22 15:49:58 2015
# Frame Rate: 120.000 fps
#------------------------------------------------------
:FULLY-SPECIFIED
:DEGREES
1919
root 3.129777 37.193191 4.281008 -5.221848 -0.879992 2.918345
RightUpLeg 12.591490 -6.796467 -5.879425
RightLeg -5.012342 -0.000000 0.000000
RightFoot -11.335712 -14.292236 16.676926
RightToeBase 13.678331 -0.000000 -0.000000
LeftUpLeg 10.085149 4.501444 1.635181
LeftLeg -1.632347 -0.000000 0.000000
LeftFoot -5.977320 6.914792 -17.290840
LeftToeBase 8.844343 -0.000000 -0.000000
Spine 2.550251 2.160036 -0.556722
RightShoulder 3.805785 25.134755 -47.135631
RightArm 122.647294 -8.885529 56.116254
RightForeArm 26.411363 -0.000000 129.877257
RightHand 10.224603 -0.000000 9.509116
RightHandThumb1 -24.326973 -0.000000 -32.862282
LeftShoulder -3.258829 21.660779 9.219873
LeftArm 74.539520 4.479556 -78.984543
LeftForeArm -40.285463 -0.000000 120.414559
LeftHand -12.423281 -0.000000 -26.887166
LeftHandThumb1 -26.253704 0.000000 33.147579
Head -2.645155 -12.887790 5.257106
1920
root 3.129227 37.192170 4.282302 -5.218346 -0.893455 2.917322
RightUpLeg 12.589337 -6.789850 -5.875930
RightLeg -5.016757 -0.000000 0.000000
RightFoot -11.341610 -14.296429 16.663903
RightToeBase 13.676923 -0.000000 -0.000000
LeftUpLeg 10.084500 4.497831 1.634256
LeftLeg -1.629911 -0.000000 0.000000
LeftFoot -5.994839 6.931866 -17.286551
LeftToeBase 8.863380 -0.000000 -0.000000
Spine 2.553036 2.175829 -0.556054
RightShoulder 3.866281 25.204867 -47.093840
RightArm 122.594068 -8.914430 56.130551
RightForeArm 26.372141 -0.000000 129.875129
RightHand 10.169653 0.000000 9.580205
RightHandThumb1 -24.326973 -0.000000 -32.862282
LeftShoulder -3.261838 21.647194 9.226107
LeftArm 74.550076 4.471762 -79.000992
LeftForeArm -40.268667 -0.000000 120.405732
LeftHand -12.460584 -0.000000 -26.760190
LeftHandThumb1 -26.253704 0.000000 33.147579
Head -2.664488 -12.823156 5.308190
1921
root 3.130024 37.192207 4.283211 -5.198897 -0.899481 2.916309
RightUpLeg 12.569959 -6.796569 -5.876130
RightLeg -5.014422 -0.000000 0.000000
RightFoot -11.338052 -14.273780 16.671875
RightToeBase 13.706402 -0.000000 -0.000000
LeftUpLeg 10.066024 4.502997 1.632781
LeftLeg -1.626148 -0.000000 0.000000
LeftFoot -6.000223 6.932920 -17.284407
LeftToeBase 8.838497 -0.000000 -0.000000
Spine 2.533227 2.179885 -0.555600
RightShoulder 3.898063 25.236002 -47.048620
RightArm 122.566504 -8.926277 56.123873
RightForeArm 26.369520 -0.000000 129.880072
RightHand 10.120579 -0.000000 9.625941
RightHandThumb1 -24.326973 -0.000000 -32.862282
LeftShoulder -3.272920 21.638482 9.207567
LeftArm 74.564268 4.460682 -78.987050
LeftForeArm -40.247240 0.000000 120.392981
LeftHand -12.447834 0.000000 -26.731962
LeftHandThumb1 -26.253704 0.000000 33.147579
Head -2.652304 -12.871929 5.310092
1922
root 3.128361 37.191886 4.284556 -5.196904 -0.901824 2.913267
RightUpLeg 12.572523 -6.793769 -5.867976
RightLeg -5.022915 -0.000000 0.000000
RightFoot -11.340324 -14.282773 16.671573
RightToeBase 13.700214 -0.000000 -0.000000
LeftUpLeg 10.069080 4.495369 1.637337
LeftLeg -1.630908 -0.000000 0.000000
LeftFoot -6.005712 6.937132 -17.276813
LeftToeBase 8.811553 -0.000000 -0.000000
Spine 2.538989 2.173870 -0.556047
RightShoulder 3.909498 25.269306 -47.047422
RightArm 122.532363 -8.914506 56.121703
RightForeArm 26.324996 -0.000000 129.903739
RightHand 10.116584 -0.000000 9.581471
RightHandThumb1 -24.326973 -0.000000 -32.862282
LeftShoulder -3.287821 21.618834 9.195739
LeftArm 74.565292 4.450619 -78.990263
LeftForeArm -40.174409 -0.000000 120.386977
LeftHand -12.435050 -0.000000 -26.748006
LeftHandThumb1 -26.253704 0.000000 33.147579
Head -2.654230 -12.883473 5.325027
1923
root 3.128918 37.191380 4.286408 -5.196140 -0.911671 2.915589
RightUpLeg 12.574739 -6.786696 -5.872948
RightLeg -5.024050 -0.000000 0.000000
RightFoot -11.343023 -14.275738 16.668090
RightToeBase 13.721994 -0.000000 -0.000000
LeftUpLeg 10.071546 4.505823 1.635544
LeftLeg -1.628365 -0.000000 0.000000
LeftFoot -6.010396 6.935526 -17.276539
LeftToeBase 8.820650 -0.000000 -0.000000
Spine 2.543915 2.177817 -0.549396
RightShoulder 3.923314 25.293276 -47.024797
RightArm 122.517488 -8.917334 56.113546
RightForeArm 26.338396 -0.000000 129.883426
RightHand 10.130981 -0.000000 9.632797
RightHandThumb1 -24.326973 -0.000000 -32.862282
LeftShoulder -3.297209 21.600175 9.177297
LeftArm 74.559778 4.437105 -78.994523
LeftForeArm -40.138476 -0.000000 120.383158
LeftHand -12.415562 -0.000000 -26.737490
LeftHandThumb1 -26.253704 0.000000 33.147579
Head -2.664510 -12.809197 5.348487
1924
root 3.129067 37.191506 4.287250 -5.175841 -0.917317 2.911574
RightUpLeg 12.554924 -6.791939 -5.869279
RightLeg -5.024834 -0.000000 0.000000
RightFoot -11.337855 -14.280531 16.675712
RightToeBase 13.723403 -0.000000 -0.000000
LeftUpLeg 10.052689 4.507112 1.635888
LeftLeg -1.625444 -0.000000 0.000000
LeftFoot -6.018396 6.939889 -17.281185
LeftToeBase 8.866650 -0.000000 -0.000000
Spine 2.523049 2.174593 -0.542481
RightShoulder 3.943763 25.345486 -46.994984
RightArm 122.477499 -8.929208 56.102300
RightForeArm 26.333540 -0.000000 129.871070
RightHand 10.138398 -0.000000 9.625138
RightHandThumb1 -24.326973 -0.000000 -32.862282
LeftShoulder -3.317422 21.596967 9.147206
LeftArm 74.571585 4.430883 -78.986892
LeftForeArm -40.118782 -0.000000 120.374976
LeftHand -12.424270 -0.000000 -26.707670
LeftHandThumb1 -26.253704 0.000000 33.147579
Head -2.651859 -12.823348 5.350238
1925
root 3.128764 37.192084 4.287448 -5.162455 -0.922268 2.911016
RightUpLeg 12.540817 -6.788191 -5.863635
RightLeg -5.025207 -0.000000 0.000000
RightFoot -11.328267 -14.278649 16.662908
RightToeBase 13.686418 -0.000000 -0.000000
LeftUpLeg 10.037100 4.510217 1.636641
LeftLeg -1.617919 -0.000000 0.000000
LeftFoot -6.022508 6.933589 -17.295188
LeftToeBase 8.893223 -0.000000 -0.000000
Spine 2.521363 2.174026 -0.542067
RightShoulder 3.887312 25.313322 -46.989579
RightArm 122.508117 -8.871459 56.068351
RightForeArm 26.364005 -0.000000 129.858904
RightHand 10.224390 0.000000 9.552508
RightHandThumb1 -24.326973 -0.000000 -32.862282
LeftShoulder -3.341674 21.565717 9.112470
LeftArm 74.568551 4.433752 -78.976353
LeftForeArm -40.091858 -0.000000 120.370585
LeftHand -12.449520 -0.000000 -26.725560
LeftHandThumb1 -26.253704 0.000000 33.147579
Head -2.639622 -12.900417 5.328490
1926
root 3.128891 37.190741 4.288627 -5.162593 -0.920500 2.915712
RightUpLeg 12.543699 -6.805959 -5.872971
RightLeg -5.025011 -0.000000 0.000000
RightFoot -11.338966 -14.248261 16.654403
RightToeBase 13.680145 -0.000000 -0.000000
LeftUpLeg 10.039571 4.507227 1.631452
LeftLeg -1.621656 -0.000000 0.000000
LeftFoot -6.024926 6.945379 -17.272224
LeftToeBase 8.820244 -0.000000 -0.000000
Spine 2.531309 2.177063 -0.552789
RightShoulder 3.976519 25.420919 -46.918218
RightArm 122.464043 -8.959851 56.088241
RightForeArm 26.407415 -0.000000 129.812387
RightHand 10.089388 -0.000000 9.735419
RightHandThumb1 -24.326973 -0.000000 -32.862282
LeftShoulder -3.343872 21.542230 9.111936
LeftArm 74.565147 4.435804 -78.983997
LeftForeArm -40.098194 -0.000000 120.371374
LeftHand -12.456706 -0.000000 -26.710905
LeftHandThumb1 -26.253704 0.000000 33.147579
Head -2.653677 -12.842919 5.381816
1927
root 3.128162 37.189873 4.290006 -5.157268 -0.926471 2.914240
RightUpLeg 12.540538 -6.797458 -5.870195
RightLeg -5.027102 -0.000000 0.000000
RightFoot -11.360050 -14.261662 16.683783
RightToeBase 13.740997 -0.000000 -0.000000
LeftUpLeg 10.039296 4.516256 1.636304
LeftLeg -1.626280 -0.000000 0.000000
LeftFoot -6.027477 6.934422 -17.277729
LeftToeBase 8.845513 -0.000000 -0.000000
Spine 2.532182 2.188795 -0.559914
RightShoulder 4.012714 25.455489 -46.863497
RightArm 122.465281 -8.974755 56.079413
RightForeArm 26.430876 -0.000000 129.784470
RightHand 10.020565 0.000000 9.781407
RightHandThumb1 -24.326973 -0.000000 -32.862282
LeftShoulder -3.348152 21.520412 9.103757
LeftArm 74.568908 4.440214 -78.980584
LeftForeArm -40.068210 -0.000000 120.366731
LeftHand -12.460304 -0.000000 -26.728064
LeftHandThumb1 -26.253704 0.000000 33.147579
Head -2.656545 -12.870476 5.411856
1928
root 3.127662 37.189647 4.290696 -5.139138 -0.928488 2.907279
RightUpLeg 12.523497 -6.799222 -5.858815
RightLeg -5.027938 -0.000000 0.000000
RightFoot -11.349568 -14.250497 16.660046
RightToeBase 13.715503 -0.000000 -0.000000
LeftUpLeg 10.018496 4.538105 1.644457
LeftLeg -1.616757 -0.000000 0.000000
LeftFoot -6.039052 6.923418 -17.264798
LeftToeBase 8.822937 -0.000000 -0.000000
Spine 2.520530 2.179426 -0.555842
RightShoulder 4.006363 25.479403 -46.827405
RightArm 122.466093 -8.988075 56.051496
RightForeArm 26.429443 -0.000000 129.761442
RightHand 10.038957 -0.000000 9.780862
RightHandThumb1 -24.326973 -0.000000 -32.862282
LeftShoulder -3.386744 21.505172 9.059825
LeftArm 74.586905 4.448926 -78.962941
LeftForeArm -40.056213 -0.000000 120.357798
LeftHand -12.483772 -0.000000 -26.756452
LeftHandThumb1 -26.253704 0.000000 33.147579
Head -2.646638 -12.917918 5.397798
1929
root 3.125687 37.190696 4.290186 -5.127650 -0.927137 2.904604
RightUpLeg 12.508632 -6.784015 -5.847134
RightLeg -5.024774 -0.000000 0.000000
RightFoot -11.341393 -14.282935 16.645969
RightToeBase 13.711552 -0.000000 -0.000000
LeftUpLeg 10.003632 4.549691 1.652360
LeftLeg -1.613062 -0.000000 0.000000
LeftFoot -6.027602 6.905942 -17.287318
LeftToeBase 8.874039 -0.000000 -0.000000
Spine 2.520465 2.171509 -0.542690
RightShoulder 3.857341 25.308963 -46.857321
RightArm 122.544814 -8.819555 55.932081
RightForeArm 26.396185 0.000000 129.764635
RightHand 10.317511 -0.000000 9.479650
RightHandThumb1 -24.326973 -0.000000 -32.862282
LeftShoulder -3.429613 21.518794 8.976522
LeftArm 74.646023 4.418768 -78.908468
LeftForeArm -40.063456 -0.000000 120.337065
LeftHand -12.483584 -0.000000 -26.745265
LeftHandThumb1 -26.253704 0.000000 33.147579
Head -2.646334 -12.942970 5.358174
